<?xml version="1.0" encoding="UTF-8" standalone="no"?>
<svg
   aria-hidden="true"
   focusable="false"
   data-prefix="fab"
   data-icon="creative-commons-zero"
   role="img"
   viewBox="0 0 496 512"
   class="svg-inline--fa fa-creative-commons-zero fa-w-16 fa-5x"
   version="1.1"
   id="svg4"
   sodipodi:docname="average.svg"
   inkscape:version="1.1 (c68e22c387, 2021-05-23)"
   xmlns:inkscape="http://www.inkscape.org/namespaces/inkscape"
   xmlns:sodipodi="http://sodipodi.sourceforge.net/DTD/sodipodi-0.dtd"
   xmlns="http://www.w3.org/2000/svg"
   xmlns:svg="http://www.w3.org/2000/svg">
  <defs
     id="defs8" />
  <sodipodi:namedview
     id="namedview6"
     pagecolor="#ffffff"
     bordercolor="#666666"
     borderopacity="1.0"
     inkscape:pageshadow="2"
     inkscape:pageopacity="0.0"
     inkscape:pagecheckerboard="0"
     showgrid="false"
     inkscape:zoom="1.2792969"
     inkscape:cx="169.62442"
     inkscape:cy="302.11908"
     inkscape:window-width="1920"
     inkscape:window-height="1017"
     inkscape:window-x="0"
     inkscape:window-y="30"
     inkscape:window-maximized="1"
     inkscape:current-layer="text467" />
  <g
     aria-label="X̅"
     id="text467"
     style="font-size:192px;line-height:1.25;font-family:'Neutra Text';-inkscape-font-specification:'Neutra Text';letter-spacing:0px;word-spacing:0px">
    <path
       id="path6769"
       style="font-family:STIXGeneral;-inkscape-font-specification:STIXGeneral;stroke-width:2.72307"
       d="M 117.29297,56.011719 V 82.152344 H 378.70703 V 56.011719 Z M 69.310547,109.875 v 9.93359 c 34.506743,3.65981 45.486103,9.93534 95.677733,83.6543 L 220.4082,284.5 138.8457,386.45312 c -40.257864,50.71447 -48.62341,56.98742 -75.810544,59.60157 v 9.93359 H 199.33398 v -9.93359 c -30.32411,-2.09132 -39.73437,-6.79671 -39.73437,-16.73047 0,-7.84244 8.36429,-22.4811 27.70898,-46.53125 l 53.03321,-68.98047 43.85156,64.79688 c 17.7762,26.6643 26.66406,42.873 26.66406,51.23828 0,9.41093 -9.41203,14.11645 -26.14258,15.16211 l -13.59375,1.04492 v 9.93359 h 154.75782 v -9.93359 c -27.70997,-3.13698 -37.64286,-9.411 -58.03321,-38.68946 l -95.86718,-136.89648 81.51562,-98.89844 c 32.93826,-40.7807 46.00962,-49.6704 79.4707,-51.76172 V 109.875 H 297.78516 v 9.93359 c 28.23279,1.04566 35.55273,4.70735 35.55273,16.73243 0,7.84244 -5.22722,15.6846 -20.91211,35.02929 l -58.55664,73.19531 -23.00586,-33.46093 c -27.70996,-40.7807 -43.39453,-60.64849 -43.39453,-75.81055 0,-12.02508 9.41156,-14.63928 24.05078,-15.16211 l 15.16211,-0.52344 V 109.875 Z"
       sodipodi:nodetypes="ccccccccccccccscccsccccccccccccscccscccc" />
  </g>
</svg>
