<?xml version="1.0" encoding="UTF-8" standalone="no"?>
<svg
   aria-hidden="true"
   focusable="false"
   data-prefix="fab"
   data-icon="creative-commons-zero"
   role="img"
   viewBox="0 0 496 512"
   class="svg-inline--fa fa-creative-commons-zero fa-w-16 fa-5x"
   version="1.1"
   id="svg4"
   sodipodi:docname="select all.svg"
   inkscape:version="1.1 (c68e22c387, 2021-05-23)"
   xmlns:inkscape="http://www.inkscape.org/namespaces/inkscape"
   xmlns:sodipodi="http://sodipodi.sourceforge.net/DTD/sodipodi-0.dtd"
   xmlns="http://www.w3.org/2000/svg"
   xmlns:svg="http://www.w3.org/2000/svg">
  <defs
     id="defs8" />
  <sodipodi:namedview
     id="namedview6"
     pagecolor="#ffffff"
     bordercolor="#666666"
     borderopacity="1.0"
     inkscape:pageshadow="2"
     inkscape:pageopacity="0.0"
     inkscape:pagecheckerboard="0"
     showgrid="false"
     inkscape:zoom="1.2792969"
     inkscape:cx="150.86412"
     inkscape:cy="302.11908"
     inkscape:window-width="1920"
     inkscape:window-height="1017"
     inkscape:window-x="0"
     inkscape:window-y="30"
     inkscape:window-maximized="1"
     inkscape:current-layer="svg4" />
  <path
     id="path3500"
     style="color:#000000;fill:#000000;stroke-width:18.2372;stroke-linecap:round;stroke-linejoin:round;stroke-dashoffset:28;-inkscape-stroke:none"
     d="M 27.34375 70.505859 A 17.384701 17.384701 0 0 0 12.289062 79.199219 A 17.384701 17.384701 0 0 0 9.9589844 87.890625 L 9.9589844 103.04688 A 17.384701 17.384701 0 0 0 27.34375 120.43164 A 17.384701 17.384701 0 0 0 44.130859 105.27539 L 72.544922 105.27539 A 17.384701 17.384701 0 0 0 89.929688 87.890625 A 17.384701 17.384701 0 0 0 72.544922 70.505859 L 27.34375 70.505859 z M 142.08398 70.505859 A 17.384701 17.384701 0 0 0 124.69922 87.890625 A 17.384701 17.384701 0 0 0 142.08398 105.27539 L 211.62305 105.27539 A 17.384701 17.384701 0 0 0 229.00781 87.890625 A 17.384701 17.384701 0 0 0 211.62305 70.505859 L 142.08398 70.505859 z M 281.16211 70.505859 A 17.384701 17.384701 0 0 0 263.77734 87.890625 A 17.384701 17.384701 0 0 0 281.16211 105.27539 L 350.70117 105.27539 A 17.384701 17.384701 0 0 0 368.08594 87.890625 A 17.384701 17.384701 0 0 0 350.70117 70.505859 L 281.16211 70.505859 z M 419.82031 70.923828 A 17.384701 17.384701 0 0 0 402.43555 88.308594 L 402.43555 157.84766 A 17.384701 17.384701 0 0 0 419.82031 175.23242 A 17.384701 17.384701 0 0 0 437.20508 157.84766 L 437.20508 88.308594 A 17.384701 17.384701 0 0 0 419.82031 70.923828 z M 100.5 144.58594 A 9.1195118 9.1195118 0 0 0 91.382812 153.70508 L 91.382812 253.93164 A 9.1195118 9.1195118 0 0 0 100.5 263.05078 L 264.7207 263.05078 A 9.1195118 9.1195118 0 0 0 273.83984 253.93164 L 273.83984 153.70508 A 9.1195118 9.1195118 0 0 0 264.7207 144.58594 L 100.5 144.58594 z M 27.34375 155.20117 A 17.384701 17.384701 0 0 0 9.9589844 172.58594 L 9.9589844 242.125 A 17.384701 17.384701 0 0 0 27.34375 259.50977 A 17.384701 17.384701 0 0 0 44.728516 242.125 L 44.728516 172.58594 A 17.384701 17.384701 0 0 0 27.34375 155.20117 z M 293.44531 208.39062 C 293.44518 221.05054 293.43702 233.71131 293.45703 246.37109 C 293.49045 252.26922 293.67743 258.36954 291.53516 263.97266 C 287.81367 274.21882 277.7127 281.63045 266.9082 282.54297 C 233.71421 282.62724 200.519 282.64142 167.32422 282.64648 L 167.32422 317.73633 A 9.1195118 9.1195118 0 0 0 176.44336 326.85547 L 340.66406 326.85547 A 9.1195118 9.1195118 0 0 0 349.7832 317.73633 L 349.7832 217.50781 A 9.1195118 9.1195118 0 0 0 340.66406 208.39062 L 293.44531 208.39062 z M 419.82031 210.00195 A 17.384701 17.384701 0 0 0 402.43555 227.38672 L 402.43555 296.92578 A 17.384701 17.384701 0 0 0 419.82031 314.31055 A 17.384701 17.384701 0 0 0 437.20508 296.92578 L 437.20508 227.38672 A 17.384701 17.384701 0 0 0 419.82031 210.00195 z M 27.34375 294.2793 A 17.384701 17.384701 0 0 0 9.9589844 311.66406 L 9.9589844 381.20312 A 17.384701 17.384701 0 0 0 27.34375 398.58789 A 17.384701 17.384701 0 0 0 44.728516 381.20312 L 44.728516 311.66406 A 17.384701 17.384701 0 0 0 27.34375 294.2793 z M 419.82031 349.08008 A 17.384701 17.384701 0 0 0 402.43555 366.46484 L 402.43555 368.82812 L 370.0293 368.82812 A 17.384701 17.384701 0 0 0 352.64453 386.21289 A 17.384701 17.384701 0 0 0 370.0293 403.59766 L 419.82031 403.59766 A 17.386439 17.386439 0 0 0 437.20508 386.21289 L 437.20508 366.46484 A 17.384701 17.384701 0 0 0 419.82031 349.08008 z M 91.873047 368.82812 A 17.384701 17.384701 0 0 0 74.488281 386.21289 A 17.384701 17.384701 0 0 0 91.873047 403.59766 L 161.41211 403.59766 A 17.384701 17.384701 0 0 0 178.79688 386.21289 A 17.384701 17.384701 0 0 0 161.41211 368.82812 L 91.873047 368.82812 z M 230.95117 368.82812 A 17.384701 17.384701 0 0 0 213.56641 386.21289 A 17.384701 17.384701 0 0 0 230.95117 403.59766 L 300.49023 403.59766 A 17.384701 17.384701 0 0 0 317.875 386.21289 A 17.384701 17.384701 0 0 0 300.49023 368.82812 L 230.95117 368.82812 z " />
</svg>
