<?xml version="1.0" encoding="UTF-8" standalone="no"?>
<svg
   aria-hidden="true"
   focusable="false"
   data-prefix="fab"
   data-icon="creative-commons-zero"
   role="img"
   viewBox="0 0 496 512"
   class="svg-inline--fa fa-creative-commons-zero fa-w-16 fa-5x"
   version="1.1"
   id="svg4"
   sodipodi:docname="select invert.svg"
   inkscape:version="1.1 (c68e22c387, 2021-05-23)"
   xmlns:inkscape="http://www.inkscape.org/namespaces/inkscape"
   xmlns:sodipodi="http://sodipodi.sourceforge.net/DTD/sodipodi-0.dtd"
   xmlns="http://www.w3.org/2000/svg"
   xmlns:svg="http://www.w3.org/2000/svg">
  <defs
     id="defs8" />
  <sodipodi:namedview
     id="namedview6"
     pagecolor="#ffffff"
     bordercolor="#666666"
     borderopacity="1.0"
     inkscape:pageshadow="2"
     inkscape:pageopacity="0.0"
     inkscape:pagecheckerboard="0"
     showgrid="false"
     inkscape:zoom="1.2792969"
     inkscape:cx="61.752671"
     inkscape:cy="302.11908"
     inkscape:window-width="1920"
     inkscape:window-height="1017"
     inkscape:window-x="0"
     inkscape:window-y="30"
     inkscape:window-maximized="1"
     inkscape:current-layer="svg4" />
  <path
     id="path3500"
     style="color:#000000;fill:#000000;stroke-width:18.2372;stroke-linecap:round;stroke-linejoin:round;stroke-dashoffset:28;-inkscape-stroke:none"
     d="M 27.34375 70.505859 C 21.13291 70.50639 15.394123 73.820265 12.289062 79.199219 C 10.763058 81.841656 9.9594449 84.839205 9.9589844 87.890625 L 9.9589844 103.04688 C 9.9589518 112.64821 17.742396 120.43168 27.34375 120.43164 C 35.910098 120.20739 43.035344 113.77436 44.130859 105.27539 L 72.544922 105.27539 C 82.146278 105.27543 89.929721 97.491981 89.929688 87.890625 C 89.929722 78.289269 82.146278 70.505823 72.544922 70.505859 L 27.34375 70.505859 z M 142.08398 70.505859 C 132.48263 70.505826 124.69918 78.289271 124.69922 87.890625 C 124.69918 97.491978 132.48263 105.27542 142.08398 105.27539 L 211.62305 105.27539 C 221.2244 105.27542 229.00785 97.491978 229.00781 87.890625 C 229.00785 78.289271 221.2244 70.505826 211.62305 70.505859 L 142.08398 70.505859 z M 281.16211 70.505859 C 271.56075 70.505821 263.7773 78.289267 263.77734 87.890625 C 263.7773 97.491982 271.56075 105.27543 281.16211 105.27539 L 350.70117 105.27539 C 360.30253 105.27543 368.08598 97.491982 368.08594 87.890625 C 368.08598 78.289267 360.30253 70.505821 350.70117 70.505859 L 281.16211 70.505859 z M 419.82031 70.923828 C 410.21896 70.923795 402.43551 78.70724 402.43555 88.308594 L 402.43555 157.84766 C 402.43552 167.44901 410.21896 175.23245 419.82031 175.23242 C 429.42167 175.23246 437.20511 167.44902 437.20508 157.84766 L 437.20508 88.308594 C 437.20512 78.707236 429.42167 70.92379 419.82031 70.923828 z M 27.34375 155.20117 C 17.742393 155.20113 9.9589463 162.98458 9.9589844 172.58594 L 9.9589844 242.125 C 9.9589463 251.72636 17.742393 259.50981 27.34375 259.50977 C 36.945108 259.50981 44.728554 251.72636 44.728516 242.125 L 44.728516 172.58594 C 44.728554 162.98458 36.945108 155.20113 27.34375 155.20117 z M 204.78711 210.16797 A 11.00205 11.00205 0 0 0 194.05859 220.15625 A 11.00205 11.00205 0 0 0 193.78711 221.16797 L 193.78711 499.16602 A 11.00205 11.00205 0 0 0 194.05859 500.17773 A 11.00205 11.00205 0 0 0 204.78711 510.16797 L 345.5625 510.16797 L 482.78516 510.16797 A 11.00205 11.00205 0 0 0 488.28516 508.69336 A 11.00205 11.00205 0 0 0 493.78711 499.16602 L 493.78711 221.16797 A 11.00205 11.00205 0 0 0 482.78516 210.16797 L 345.5625 210.16797 L 204.78711 210.16797 z M 215.78906 232.16992 L 345.5625 232.16992 L 345.5625 249.08008 C 405.99689 250.03687 454.91992 299.511 454.91992 360.16797 C 454.91992 420.82492 405.99689 470.29907 345.5625 471.25586 L 345.5625 488.16602 L 215.78906 488.16602 L 215.78906 232.16992 z M 345.5625 471.25586 L 345.5625 249.08008 C 344.96922 249.07069 344.38258 249.03516 343.78711 249.03516 C 282.53468 249.03516 232.6543 298.91554 232.6543 360.16797 C 232.6543 421.42039 282.53468 471.30078 343.78711 471.30078 C 344.38258 471.30078 344.96922 471.26525 345.5625 471.25586 z M 27.34375 294.2793 C 17.742396 294.27926 9.9589518 302.06271 9.9589844 311.66406 L 9.9589844 381.20312 C 9.9589463 390.80448 17.742393 398.58793 27.34375 398.58789 C 36.945108 398.58793 44.728554 390.80449 44.728516 381.20312 L 44.728516 311.66406 C 44.728549 302.06271 36.945104 294.27926 27.34375 294.2793 z M 91.873047 368.82812 C 82.271689 368.82808 74.488243 376.61153 74.488281 386.21289 C 74.488243 395.81425 82.271689 403.5977 91.873047 403.59766 L 161.41211 403.59766 C 171.01347 403.5977 178.79692 395.81425 178.79688 386.21289 C 178.79692 376.61153 171.01347 368.82809 161.41211 368.82812 L 91.873047 368.82812 z " />
</svg>
