<?xml version="1.0" encoding="UTF-8" standalone="no"?>
<svg
   aria-hidden="true"
   focusable="false"
   data-prefix="fas"
   data-icon="arrow-right"
   role="img"
   viewBox="0 0 448 512"
   class="svg-inline--fa fa-arrow-right fa-w-14 fa-9x"
   version="1.1"
   id="svg4"
   sodipodi:docname="arrow-from-right.svg"
   inkscape:version="1.1 (c68e22c387, 2021-05-23)"
   xmlns:inkscape="http://www.inkscape.org/namespaces/inkscape"
   xmlns:sodipodi="http://sodipodi.sourceforge.net/DTD/sodipodi-0.dtd"
   xmlns="http://www.w3.org/2000/svg"
   xmlns:svg="http://www.w3.org/2000/svg">
  <defs
     id="defs8" />
  <sodipodi:namedview
     id="namedview6"
     pagecolor="#ffffff"
     bordercolor="#666666"
     borderopacity="1.0"
     inkscape:pageshadow="2"
     inkscape:pageopacity="0.0"
     inkscape:pagecheckerboard="0"
     showgrid="true"
     inkscape:snap-others="true"
     inkscape:zoom="1.1875307"
     inkscape:cx="293.46611"
     inkscape:cy="262.30902"
     inkscape:window-width="1680"
     inkscape:window-height="989"
     inkscape:window-x="0"
     inkscape:window-y="30"
     inkscape:window-maximized="1"
     inkscape:current-layer="svg4">
    <inkscape:grid
       type="xygrid"
       id="grid10" />
  </sodipodi:namedview>
  <path
     id="path2"
     class=""
     d="m 422.64961,19.099609 c 13.3,0 24,10.7 24,24 0,141.266931 0,282.533851 0,423.800781 0,13.3 -10.7,24 -24,24 h -32 c -13.3,0 -24,-10.7 -24,-24 V 296 h -230 l 100,94 c 9.7,9.3 9.90039,24.80078 0.40039,34.30078 L 214.84883,446.5 c -9.3,9.4 -24.49033,9.39188 -33.89844,0 L 7.05,272.90039 C -2.35,263.60039 -2.35,248.4 7.05,239 L 180.95039,63.5 c 9.3,-9.4 24.49844,-9.4 33.89844,0 L 237.05,85.699219 c 9.6,9.5 9.39961,25.000781 -0.40039,34.300781 l -100,96 h 230 V 43.099609 c 0,-13.3 10.7,-24 24,-24 z"
     sodipodi:nodetypes="sccsssccccccccccccccsss" />
</svg>
