<?xml version="1.0" encoding="UTF-8" standalone="no"?>
<svg
   aria-hidden="true"
   focusable="false"
   data-prefix="fas"
   data-icon="arrow-right"
   role="img"
   viewBox="0 0 448 512"
   class="svg-inline--fa fa-arrow-right fa-w-14 fa-9x"
   version="1.1"
   id="svg4"
   sodipodi:docname="arrow-to-left.svg"
   inkscape:version="1.1 (c68e22c387, 2021-05-23)"
   xmlns:inkscape="http://www.inkscape.org/namespaces/inkscape"
   xmlns:sodipodi="http://sodipodi.sourceforge.net/DTD/sodipodi-0.dtd"
   xmlns="http://www.w3.org/2000/svg"
   xmlns:svg="http://www.w3.org/2000/svg">
  <defs
     id="defs8" />
  <sodipodi:namedview
     id="namedview6"
     pagecolor="#ffffff"
     bordercolor="#666666"
     borderopacity="1.0"
     inkscape:pageshadow="2"
     inkscape:pageopacity="0.0"
     inkscape:pagecheckerboard="0"
     showgrid="true"
     inkscape:snap-others="true"
     inkscape:zoom="1.1875307"
     inkscape:cx="143.57524"
     inkscape:cy="262.30901"
     inkscape:window-width="1680"
     inkscape:window-height="989"
     inkscape:window-x="0"
     inkscape:window-y="30"
     inkscape:window-maximized="1"
     inkscape:current-layer="svg4">
    <inkscape:grid
       type="xygrid"
       id="grid10" />
  </sodipodi:namedview>
  <path
     id="path2"
     class=""
     d="m 56,19.099609 c 13.3,0 24,10.7 24,24 V 209.12891 L 224.30078,63.5 c 9.30722,-9.392852 24.49844,-9.4 33.89844,0 l 22.20117,22.199219 C 289.95052,95.24935 289.74621,110.64364 280,120 l -100,96 h 246 c 13.3,0 24,10.7 24,24 v 32 c 0,13.3 -10.7,24 -24,24 H 180 l 100,94 c 9.7913,9.20382 9.90039,24.80078 0.40039,34.30078 L 258.19922,446.5 c -9.35013,9.35013 -24.49033,9.39188 -33.89844,0 L 80,302.44922 v 164.45117 c 0,13.3 -10.7,24 -24,24 H 24 c -13.3,0 -24,-10.7 -24,-24 0,-141.26693 0,-282.53385 0,-423.800781 0,-13.3 10.7,-24 24,-24 z"
     sodipodi:nodetypes="ssccccscsssscsccccsssccss" />
</svg>
