<?xml version="1.0" encoding="UTF-8" standalone="no"?>
<svg
   aria-hidden="true"
   focusable="false"
   data-prefix="fas"
   data-icon="arrow-to-left"
   role="img"
   viewBox="0 0 448 512"
   class="svg-inline--fa fa-arrow-to-left fa-w-14 fa-3x"
   version="1.1"
   id="svg4"
   sodipodi:docname="arrow from left.svg"
   inkscape:version="1.1 (c68e22c387, 2021-05-23)"
   xmlns:inkscape="http://www.inkscape.org/namespaces/inkscape"
   xmlns:sodipodi="http://sodipodi.sourceforge.net/DTD/sodipodi-0.dtd"
   xmlns="http://www.w3.org/2000/svg"
   xmlns:svg="http://www.w3.org/2000/svg">
  <defs
     id="defs8" />
  <sodipodi:namedview
     id="namedview6"
     pagecolor="#ffffff"
     bordercolor="#666666"
     borderopacity="1.0"
     inkscape:pageshadow="2"
     inkscape:pageopacity="0.0"
     inkscape:pagecheckerboard="0"
     showgrid="false"
     inkscape:zoom="1.4707031"
     inkscape:cx="224.0425"
     inkscape:cy="255.66003"
     inkscape:window-width="1680"
     inkscape:window-height="985"
     inkscape:window-x="0"
     inkscape:window-y="0"
     inkscape:window-maximized="1"
     inkscape:current-layer="svg4" />
  <path
     id="path111"
     d="M 24 64 C 10.7 64 1.4849233e-16 74.7 0 88 L 0 424 C 0 437.3 10.7 448 24 448 L 48 448 C 61.3 448 72 437.3 72 424 L 72 88 C 72 74.7 61.3 64 48 64 L 24 64 z M 288.53711 96.449219 C 282.39961 96.449219 276.25078 98.8 271.55078 103.5 L 254.55078 120.5 C 245.15078 129.8 245.15078 145.00039 254.55078 154.40039 L 320.15039 220 L 111.05078 220 C 97.750781 220 87.050781 230.7 87.050781 244 L 87.050781 268 C 87.050781 281.3 97.750781 292 111.05078 292 L 320.15039 292 L 254.55078 357.59961 C 245.15078 366.89961 245.15078 382.10039 254.55078 391.40039 L 271.55078 408.40039 C 280.85078 417.80039 296.04922 417.80039 305.44922 408.40039 L 440.94922 272.90039 C 450.34922 263.60039 450.34922 248.4 440.94922 239 L 305.44922 103.5 C 300.79922 98.8 294.67461 96.449219 288.53711 96.449219 z " />
</svg>
