<?xml version="1.0" encoding="UTF-8" standalone="no"?>
<svg
   aria-hidden="true"
   focusable="false"
   data-prefix="fas"
   data-icon="trash"
   role="img"
   viewBox="0 0 448 512"
   class="svg-inline--fa fa-trash fa-w-14 fa-5x"
   version="1.1"
   id="svg4"
   sodipodi:docname="delete zero.svg"
   inkscape:version="1.1 (c68e22c387, 2021-05-23)"
   xmlns:inkscape="http://www.inkscape.org/namespaces/inkscape"
   xmlns:sodipodi="http://sodipodi.sourceforge.net/DTD/sodipodi-0.dtd"
   xmlns="http://www.w3.org/2000/svg"
   xmlns:svg="http://www.w3.org/2000/svg">
  <defs
     id="defs8" />
  <sodipodi:namedview
     id="namedview6"
     pagecolor="#ffffff"
     bordercolor="#666666"
     borderopacity="1.0"
     inkscape:pageshadow="2"
     inkscape:pageopacity="0.0"
     inkscape:pagecheckerboard="0"
     showgrid="false"
     inkscape:zoom="0.90459951"
     inkscape:cx="138.1827"
     inkscape:cy="265.86351"
     inkscape:window-width="1920"
     inkscape:window-height="1017"
     inkscape:window-x="0"
     inkscape:window-y="30"
     inkscape:window-maximized="1"
     inkscape:current-layer="svg4"
     inkscape:snap-nodes="true"
     inkscape:snap-global="false" />
  <path
     id="path2"
     style="stroke-width:0.772394"
     class=""
     d="m 164.67871,5.7422532 c -7.02317,-0.0269 -13.44409,3.9621938 -16.5293,10.2714848 L 140.88964,30.45905 H 48.202148 c -6.824622,4.77e-4 -12.356943,5.532805 -12.357422,12.357422 v 24.716797 c 4.86e-4,6.824615 5.532805,12.356945 12.357422,12.357422 H 369.51855 c 6.82544,6.84e-4 12.35888,-5.531983 12.35937,-12.357422 V 42.816472 C 381.87744,35.99102 376.34401,30.458367 369.51855,30.45905 H 276.833 L 269.56933,16.013738 C 266.4324,9.715661 260.00187,5.7377192 252.96582,5.7422532 Z M 60.561523,104.60749 l 16.375,261.84375 c 1.223908,19.53585 17.423906,34.75359 36.998037,34.75586 h 54.60157 c -1.12832,-8.445 -2.0096,-16.89584 -2.37696,-25.41993 -1.05144,-24.39709 0.0336,-48.1389 3.8125,-70.41797 3.73844,-22.04049 10.4762,-43.73149 21.36915,-63.33007 7.57029,-13.62045 17.40836,-26.00811 29.23632,-36.17188 10.61879,-9.12473 22.83899,-16.39198 35.98438,-21.22265 14.53817,-5.34249 31.15284,-8.06551 45.24219,-8.42579 8.68082,-0.22198 17.08562,0.3274 25.16992,1.39453 8.58786,1.1336 17.05918,3.14945 25.24804,5.98829 l 4.93946,-78.99414 z M 305.8916,210.16803 c -84.90725,0 -106.26172,80.13986 -106.26172,148.04492 0,67.90507 21.35447,148.04493 106.26172,148.04493 84.90726,0 106.26367,-80.13986 106.26367,-148.04493 0,-67.90506 -21.35641,-148.04492 -106.26367,-148.04492 z m 0,55.87891 c 3.42117,0 6.63625,0.52038 9.53906,1.24609 6.11665,5.28726 9.12217,12.54329 3.21289,22.70313 L 262.1416,393.87702 c -1.76243,-13.16633 -1.96875,-26.02259 -1.96875,-35.66407 0,-29.8575 2.07291,-92.16601 45.71875,-92.16601 z m 42.29882,47.89648 c 3.00649,15.96547 3.42188,32.55461 3.42188,44.26953 0,29.96117 -2.07485,92.16407 -45.7207,92.16407 -13.9957,0 -33.79687,-7.98251 -20.83789,-27.36914 z"
     sodipodi:nodetypes="cccccccccccccccccccssssssscccsssssscccsscsscc" />
</svg>
