<?xml version="1.0" encoding="UTF-8" standalone="no"?>
<svg
   aria-hidden="true"
   focusable="false"
   data-prefix="fas"
   data-icon="trash"
   role="img"
   viewBox="0 0 448 512"
   class="svg-inline--fa fa-trash fa-w-14 fa-5x"
   version="1.1"
   id="svg4"
   sodipodi:docname="delete zero.svg"
   inkscape:version="1.1 (c68e22c387, 2021-05-23)"
   xmlns:inkscape="http://www.inkscape.org/namespaces/inkscape"
   xmlns:sodipodi="http://sodipodi.sourceforge.net/DTD/sodipodi-0.dtd"
   xmlns="http://www.w3.org/2000/svg"
   xmlns:svg="http://www.w3.org/2000/svg">
  <defs
     id="defs8" />
  <sodipodi:namedview
     id="namedview6"
     pagecolor="#ffffff"
     bordercolor="#666666"
     borderopacity="1.0"
     inkscape:pageshadow="2"
     inkscape:pageopacity="0.0"
     inkscape:pagecheckerboard="0"
     showgrid="false"
     inkscape:zoom="1.2792969"
     inkscape:cx="55.499236"
     inkscape:cy="256.78167"
     inkscape:window-width="1920"
     inkscape:window-height="1017"
     inkscape:window-x="0"
     inkscape:window-y="30"
     inkscape:window-maximized="1"
     inkscape:current-layer="svg4"
     inkscape:snap-nodes="true"
     inkscape:snap-global="false" />
  <path
     id="path2"
     style="stroke-width:0.712087"
     class=""
     d="M 176.21875 39.958984 C 169.74394 39.934184 163.82479 43.613018 160.98047 49.429688 L 154.28711 62.746094 L 68.835938 62.746094 C 62.544173 62.746534 57.443801 67.846912 57.443359 74.138672 L 57.443359 96.925781 C 57.443807 103.21754 62.544177 108.31792 68.835938 108.31836 L 365.06445 108.31836 C 371.35697 108.31899 376.45853 103.2183 376.45898 96.925781 L 376.45898 74.138672 C 376.45854 67.846142 371.35698 62.745464 365.06445 62.746094 L 279.61523 62.746094 L 272.91992 49.429688 C 270.02792 43.623356 264.09802 39.954804 257.61133 39.958984 L 176.21875 39.958984 z M 80.230469 131.10547 L 95.326172 372.50391 C 96.454519 390.51442 111.38973 404.54481 129.43555 404.54688 L 207.23047 404.54688 C 205.42028 387.08233 205.44423 369.42561 207.37109 351.97461 C 209.54118 332.72301 214.13719 313.51474 223.06055 296.2168 C 231.01264 280.55165 243.04882 266.77192 258.19336 257.72852 C 272.91685 248.92539 290.16115 244.85574 307.23438 244.74609 C 320.46191 244.55882 333.80376 246.62706 346.14453 251.47461 L 353.67188 131.10547 L 80.230469 131.10547 z M 307.94531 264.08984 C 243.44146 264.08984 227.21875 324.97126 227.21875 376.55859 C 227.21875 428.14592 243.44146 489.02734 307.94531 489.02734 C 372.44917 489.02734 388.67383 428.14592 388.67383 376.55859 C 388.67383 324.97126 372.44917 264.08984 307.94531 264.08984 z M 307.94531 306.54102 C 310.54437 306.54102 312.98615 306.93501 315.19141 307.48633 C 319.83821 311.50305 322.12208 317.01597 317.63281 324.73438 L 274.70898 403.65234 C 273.37007 393.64991 273.21289 383.8832 273.21289 376.55859 C 273.21289 353.87591 274.78766 306.54102 307.94531 306.54102 z M 340.08008 342.92773 C 342.3641 355.05666 342.67969 367.65879 342.67969 376.55859 C 342.67969 399.32002 341.10297 446.57617 307.94531 446.57617 C 297.31281 446.57617 282.27032 440.51118 292.11523 425.7832 L 340.08008 342.92773 z " />
</svg>
