<?xml version="1.0" encoding="UTF-8" standalone="no"?>
<svg
   aria-hidden="true"
   focusable="false"
   data-prefix="fas"
   data-icon="trash"
   role="img"
   viewBox="0 0 448 512"
   class="svg-inline--fa fa-trash fa-w-14 fa-5x"
   version="1.1"
   id="svg4"
   sodipodi:docname="delete eye slash.svg"
   inkscape:version="1.1 (c68e22c387, 2021-05-23)"
   xmlns:inkscape="http://www.inkscape.org/namespaces/inkscape"
   xmlns:sodipodi="http://sodipodi.sourceforge.net/DTD/sodipodi-0.dtd"
   xmlns="http://www.w3.org/2000/svg"
   xmlns:svg="http://www.w3.org/2000/svg">
  <defs
     id="defs8" />
  <sodipodi:namedview
     id="namedview6"
     pagecolor="#ffffff"
     bordercolor="#666666"
     borderopacity="1.0"
     inkscape:pageshadow="2"
     inkscape:pageopacity="0.0"
     inkscape:pagecheckerboard="0"
     showgrid="false"
     inkscape:zoom="1.2792969"
     inkscape:cx="304.85496"
     inkscape:cy="245.83816"
     inkscape:window-width="1920"
     inkscape:window-height="1017"
     inkscape:window-x="0"
     inkscape:window-y="30"
     inkscape:window-maximized="1"
     inkscape:current-layer="svg4"
     inkscape:snap-nodes="true"
     inkscape:snap-global="false" />
  <path
     id="path696"
     style="fill:#000000;stroke-width:0.775471"
     d="M 164.52344 6.0371094 C 157.47219 6.0095224 151.02574 10.015318 147.92773 16.349609 L 140.63867 30.851562 L 47.582031 30.851562 C 40.729015 30.85119 35.173455 36.40675 35.173828 43.259766 L 35.173828 68.074219 C 35.173456 74.927234 40.729016 80.482794 47.582031 80.482422 L 370.17773 80.482422 C 377.03075 80.482798 382.58631 74.927237 382.58594 68.074219 L 382.58594 43.259766 C 382.58631 36.406747 377.03075 30.851186 370.17773 30.851562 L 277.12109 30.851562 L 269.83203 16.349609 C 266.68185 10.026076 260.22295 6.0313444 253.1582 6.0371094 L 164.52344 6.0371094 z M 59.990234 105.29688 L 76.429688 368.18164 C 77.65779 387.79543 93.922012 403.07536 113.57422 403.07812 L 131.47656 403.07812 C 128.4096 398.37948 125.53646 393.55612 122.86914 388.62109 C 114.25877 374.56338 112.19882 356.55227 117.91797 341.03516 C 123.50199 328.19437 130.87996 316.18435 139.28906 305.00781 C 133.72706 300.67605 128.14951 296.36271 122.60352 292.01172 C 118.13216 288.42926 113.43892 285.05404 109.54297 280.82227 C 98.2433 268.09468 94.936854 248.83619 101.48242 233.10547 C 104.75389 225.23141 110.47596 218.78805 115.58398 212.08203 C 123.89745 199.90205 138.13865 191.80925 152.94727 191.50195 C 161.99945 191.33263 171.08113 193.81422 178.76562 198.60742 C 195.56834 211.27738 212.10965 224.28478 228.75 237.16797 C 238.10913 233.58437 247.75054 230.74463 257.55078 228.65234 C 287.94565 222.02712 319.88418 223.02918 349.90039 231.12305 L 357.76953 105.29688 L 59.990234 105.29688 z M 153.39258 229.37109 C 151.29071 229.63917 149.34435 230.72535 148.00977 232.44336 L 138.05273 245.25977 C 135.30136 248.79833 135.93973 253.89737 139.47852 256.64844 L 421.60156 475.95898 C 425.14024 478.71346 430.2422 478.07583 432.99414 474.53516 L 442.95508 461.7168 C 445.70424 458.17754 445.06419 453.07984 441.52539 450.33008 L 401.75781 418.33008 C 418.79103 403.97477 432.79965 386.37569 442.96875 366.55664 C 445.32152 361.90217 445.32152 356.40642 442.96875 351.75195 C 415.46219 298.08296 361.0069 261.76953 298.6543 261.76953 C 272.53968 261.80123 246.84923 268.37582 223.92969 280.89258 L 159.40234 231.01758 C 158.27732 230.14193 156.94149 229.57809 155.5293 229.38281 C 154.81096 229.28361 154.0932 229.28171 153.39258 229.37109 z M 298.6543 286.11719 C 339.00179 286.09509 371.71542 318.80876 371.69336 359.15625 C 371.69336 370.12744 369.01171 380.35419 364.64453 389.64648 L 364.64453 389.64062 L 338.26758 369.25586 C 339.19624 365.83524 339.69932 362.24005 339.69922 358.52539 C 339.69878 335.95664 321.40273 317.66147 298.83398 317.66211 C 291.4351 317.66225 284.50378 319.63932 278.51758 323.07812 L 252.42188 302.91016 C 252.42188 302.91016 281.75272 286.12954 298.6543 286.11719 z M 172.96484 323.56055 C 165.97027 332.33546 159.53377 341.61145 154.33984 351.75586 C 151.98641 356.41086 151.98641 361.9075 154.33984 366.5625 C 181.8464 420.23148 236.3017 456.54297 298.6543 456.54297 C 312.3036 456.54297 325.47145 454.51494 338.16211 451.23828 L 311.8418 430.87305 C 307.49513 431.71284 303.08116 432.15607 298.6543 432.19727 C 260.18163 432.19727 229.03769 402.41687 226.17188 364.67969 L 172.96484 323.56055 z " />
</svg>
