<?xml version="1.0" encoding="UTF-8" standalone="no"?>
<svg
   aria-hidden="true"
   focusable="false"
   data-prefix="fas"
   data-icon="trash"
   role="img"
   viewBox="0 0 448 512"
   class="svg-inline--fa fa-trash fa-w-14 fa-5x"
   version="1.1"
   id="svg4"
   sodipodi:docname="delete unselected.svg"
   inkscape:version="1.1 (c68e22c387, 2021-05-23)"
   xmlns:inkscape="http://www.inkscape.org/namespaces/inkscape"
   xmlns:sodipodi="http://sodipodi.sourceforge.net/DTD/sodipodi-0.dtd"
   xmlns="http://www.w3.org/2000/svg"
   xmlns:svg="http://www.w3.org/2000/svg">
  <defs
     id="defs8" />
  <sodipodi:namedview
     id="namedview6"
     pagecolor="#ffffff"
     bordercolor="#666666"
     borderopacity="1.0"
     inkscape:pageshadow="2"
     inkscape:pageopacity="0.0"
     inkscape:pagecheckerboard="0"
     showgrid="false"
     inkscape:zoom="1.2792969"
     inkscape:cx="55.499237"
     inkscape:cy="256"
     inkscape:window-width="1920"
     inkscape:window-height="1017"
     inkscape:window-x="0"
     inkscape:window-y="30"
     inkscape:window-maximized="1"
     inkscape:current-layer="svg4" />
  <path
     id="path2"
     style="stroke-width:0.712087"
     class=""
     d="M 218.98633 3.4804688 C 213.94455 3.4804267 209.85738 7.5676012 209.85742 12.609375 L 209.85742 45.583984 C 209.85842 50.624948 213.94536 54.71098 218.98633 54.710938 C 224.02728 54.710969 228.11413 50.624944 228.11523 45.583984 L 228.11523 21.738281 L 273.75781 21.738281 C 278.79959 21.738316 282.88676 17.651145 282.88672 12.609375 C 282.88677 7.5676062 278.79959 3.4804337 273.75781 3.4804688 L 218.98633 3.4804688 z M 328.53125 3.4804688 C 323.48948 3.4804337 319.4023 7.5676062 319.40234 12.609375 C 319.40231 17.651145 323.48948 21.738316 328.53125 21.738281 L 383.30469 21.738281 C 388.34646 21.738316 392.43362 17.651145 392.43359 12.609375 C 392.43363 7.5676062 388.34646 3.4804337 383.30469 3.4804688 L 328.53125 3.4804688 z M 438.07812 3.4804688 C 433.03634 3.4804337 428.94917 7.5676062 428.94922 12.609375 C 429.08217 13.005431 429.24184 13.391484 429.42773 13.765625 L 429.42773 66.902344 C 429.42769 71.944119 433.51487 76.031293 438.55664 76.03125 C 443.5984 76.031282 447.68559 71.944108 447.68555 66.902344 L 447.68555 12.609375 C 447.68509 7.5678142 443.5982 3.4809378 438.55664 3.4804688 L 438.07812 3.4804688 z M 308.98047 35.923828 C 306.15929 35.923828 303.33748 37.000207 301.18359 39.152344 L 293.38867 46.947266 C 289.08439 51.251539 289.08439 58.231284 293.38867 62.539062 L 328.46289 97.615234 L 293.38867 132.68945 C 289.08439 136.99372 289.08439 143.97347 293.38867 148.28125 L 301.18359 156.07617 C 305.48786 160.38045 312.46917 160.38045 316.77344 156.07617 L 351.84961 121 L 386.92578 156.07617 C 391.23005 160.38045 398.21136 160.38045 402.51562 156.07617 L 410.31055 148.28125 C 414.61482 143.97698 414.61482 136.99723 410.31055 132.68945 L 375.23633 97.615234 L 410.31055 62.539062 C 414.61482 58.234789 414.61482 51.255045 410.31055 46.947266 L 402.51562 39.152344 C 398.21136 34.848071 391.23356 34.848071 386.92578 39.152344 L 351.84961 74.228516 L 316.77344 39.152344 C 314.6213 37.000207 311.80164 35.923828 308.98047 35.923828 z M 218.98633 76.886719 C 213.94455 76.886679 209.85739 80.973856 209.85742 86.015625 L 209.85742 132.08594 C 209.85739 137.12771 213.94455 141.21488 218.98633 141.21484 C 224.02809 141.21487 228.11526 137.1277 228.11523 132.08594 L 228.11523 86.015625 C 228.11526 80.973866 224.02809 76.886689 218.98633 76.886719 z M 438.55664 112.54688 C 433.51487 112.54682 429.42769 116.634 429.42773 121.67578 L 429.42773 176.44922 C 429.42769 181.491 433.51487 185.57817 438.55664 185.57812 C 443.5984 185.57816 447.68559 181.49099 447.68555 176.44922 L 447.68555 121.67578 C 447.68559 116.63402 443.5984 112.54684 438.55664 112.54688 z M 118.77539 147.41211 A 16.890688 16.890688 0 0 0 103.53711 156.88281 L 96.84375 170.19922 L 11.392578 170.19922 A 11.393381 11.393381 0 0 0 0 181.5918 L 0 204.37891 A 11.393381 11.393381 0 0 0 11.392578 215.77148 L 307.62109 215.77148 A 11.393381 11.393381 0 0 0 319.01562 204.37891 L 319.01562 181.5918 A 11.393381 11.393381 0 0 0 307.62109 170.19922 L 222.17188 170.19922 L 215.47656 156.88281 A 17.090072 17.090072 0 0 0 200.16797 147.41211 L 118.77539 147.41211 z M 438.55664 222.09375 C 433.51487 222.09371 429.42769 226.18088 429.42773 231.22266 L 429.42773 238.58008 L 410.70508 238.58008 C 405.6633 238.58004 401.57614 242.66721 401.57617 247.70898 C 401.57614 252.75076 405.6633 256.83793 410.70508 256.83789 L 438.55664 256.83789 C 443.5982 256.83742 447.68509 252.75055 447.68555 247.70898 L 447.68555 231.22266 C 447.68559 226.18089 443.5984 222.09372 438.55664 222.09375 z M 22.787109 238.55859 L 37.882812 479.95703 A 34.180144 34.180144 0 0 0 71.992188 512 L 247.02344 512 A 34.180144 34.180144 0 0 0 281.13086 479.95703 L 296.22852 238.55859 L 22.787109 238.55859 z M 313.31641 238.58008 C 308.27464 238.58005 304.18747 242.66722 304.1875 247.70898 C 304.18747 252.75075 308.27464 256.83792 313.31641 256.83789 L 368.08789 256.83789 C 373.12966 256.83792 377.21683 252.75075 377.2168 247.70898 C 377.21683 242.66722 373.12966 238.58005 368.08789 238.58008 L 313.31641 238.58008 z " />
</svg>
