<?xml version="1.0" encoding="UTF-8" standalone="no"?>
<svg
   aria-hidden="true"
   focusable="false"
   data-prefix="fab"
   data-icon="creative-commons-zero"
   role="img"
   viewBox="0 0 496 512"
   class="svg-inline--fa fa-creative-commons-zero fa-w-16 fa-5x"
   version="1.1"
   id="svg4"
   sodipodi:docname="select none.svg"
   inkscape:version="1.1 (c68e22c387, 2021-05-23)"
   xmlns:inkscape="http://www.inkscape.org/namespaces/inkscape"
   xmlns:sodipodi="http://sodipodi.sourceforge.net/DTD/sodipodi-0.dtd"
   xmlns="http://www.w3.org/2000/svg"
   xmlns:svg="http://www.w3.org/2000/svg">
  <defs
     id="defs8" />
  <sodipodi:namedview
     id="namedview6"
     pagecolor="#ffffff"
     bordercolor="#666666"
     borderopacity="1.0"
     inkscape:pageshadow="2"
     inkscape:pageopacity="0.0"
     inkscape:pagecheckerboard="0"
     showgrid="false"
     inkscape:zoom="1.2792969"
     inkscape:cx="150.86412"
     inkscape:cy="302.11908"
     inkscape:window-width="1920"
     inkscape:window-height="1017"
     inkscape:window-x="0"
     inkscape:window-y="30"
     inkscape:window-maximized="1"
     inkscape:current-layer="svg4"
     inkscape:snap-global="false" />
  <path
     id="path3500"
     style="color:#000000;fill:#000000;stroke-width:18.2372;stroke-linecap:round;stroke-linejoin:round;stroke-dashoffset:28;-inkscape-stroke:none"
     d="M 27.34375 70.505859 C 21.13291 70.50639 15.394123 73.820265 12.289062 79.199219 C 10.763058 81.841656 9.9594449 84.839205 9.9589844 87.890625 L 9.9589844 103.04688 C 9.9589518 112.64822 17.742396 120.43168 27.34375 120.43164 C 35.910098 120.20739 43.035344 113.77436 44.130859 105.27539 L 72.544922 105.27539 C 82.146278 105.27543 89.929722 97.491981 89.929688 87.890625 C 89.929723 78.289269 82.146278 70.505823 72.544922 70.505859 L 27.34375 70.505859 z M 142.08398 70.505859 C 132.48263 70.505826 124.69918 78.289271 124.69922 87.890625 C 124.69918 97.491978 132.48263 105.27542 142.08398 105.27539 L 211.62305 105.27539 C 221.2244 105.27542 229.00785 97.491978 229.00781 87.890625 C 229.00785 78.289271 221.2244 70.505826 211.62305 70.505859 L 142.08398 70.505859 z M 281.16211 70.505859 C 271.56075 70.505821 263.7773 78.289267 263.77734 87.890625 C 263.7773 97.491982 271.56075 105.27543 281.16211 105.27539 L 350.70117 105.27539 C 360.30253 105.27543 368.08598 97.491982 368.08594 87.890625 C 368.08598 78.289267 360.30253 70.505821 350.70117 70.505859 L 281.16211 70.505859 z M 419.82031 70.923828 C 410.21896 70.923795 402.43551 78.70724 402.43555 88.308594 L 402.43555 138.24609 C 402.43552 147.84744 410.21896 155.63089 419.82031 155.63086 C 429.42167 155.6309 437.20511 147.84745 437.20508 138.24609 L 437.20508 88.308594 C 437.20512 78.707236 429.42167 70.92379 419.82031 70.923828 z M 27.34375 155.20117 C 17.742393 155.20113 9.9589463 162.98458 9.9589844 172.58594 L 9.9589844 242.125 C 9.9589463 251.72636 17.742393 259.50981 27.34375 259.50977 C 36.945108 259.50981 44.728554 251.72636 44.728516 242.125 L 44.728516 172.58594 C 44.728554 162.98458 36.945108 155.20113 27.34375 155.20117 z M 419.82031 186.83398 C 410.21895 186.83395 402.43551 194.61739 402.43555 204.21875 L 402.43555 235.14062 L 340.31445 297.26172 L 252.60547 209.55273 C 241.84231 198.78956 224.39107 198.78956 213.61914 209.55273 L 194.12695 229.04492 C 183.36378 239.80808 183.36378 257.25932 194.12695 268.03125 L 281.83594 355.74023 L 268.74805 368.82812 L 230.95117 368.82812 C 221.34981 368.8281 213.56637 376.61153 213.56641 386.21289 C 213.56637 395.81425 221.34981 403.59769 230.95117 403.59766 L 233.97852 403.59766 L 194.12695 443.44922 C 183.36378 454.21238 183.36378 471.66362 194.12695 482.43555 L 213.61914 501.92773 C 224.3823 512.69089 241.84231 512.69089 252.60547 501.92773 L 340.31445 414.21875 L 428.02344 501.92773 C 438.7866 512.69089 456.2466 512.69089 467.00977 501.92773 L 486.50195 482.43555 C 497.26511 471.67238 497.26511 454.22115 486.50195 443.44922 L 398.79297 355.74023 L 486.50195 268.03125 C 497.26511 257.26809 497.26511 239.81685 486.50195 229.04492 L 467.00977 209.55273 C 458.93368 201.47665 447.0926 199.4603 437.13281 203.50391 C 436.74976 194.24154 429.17682 186.83395 419.82031 186.83398 z M 27.34375 294.2793 C 17.742396 294.27926 9.9589518 302.06271 9.9589844 311.66406 L 9.9589844 381.20312 C 9.9589463 390.80448 17.742393 398.58793 27.34375 398.58789 C 36.945108 398.58793 44.728554 390.80448 44.728516 381.20312 L 44.728516 311.66406 C 44.728549 302.06271 36.945104 294.27926 27.34375 294.2793 z M 91.873047 368.82812 C 82.271689 368.82808 74.488243 376.61153 74.488281 386.21289 C 74.488243 395.81425 82.271689 403.5977 91.873047 403.59766 L 161.41211 403.59766 C 171.01347 403.5977 178.79692 395.81425 178.79688 386.21289 C 178.79692 376.61153 171.01347 368.82809 161.41211 368.82812 L 91.873047 368.82812 z " />
</svg>
