<?xml version="1.0" encoding="UTF-8" standalone="no"?>
<svg
   aria-hidden="true"
   focusable="false"
   data-prefix="fab"
   data-icon="creative-commons-zero"
   role="img"
   viewBox="0 0 496 512"
   class="svg-inline--fa fa-creative-commons-zero fa-w-16 fa-5x"
   version="1.1"
   id="svg4"
   sodipodi:docname="select all.svg"
   inkscape:version="1.1 (c68e22c387, 2021-05-23)"
   xmlns:inkscape="http://www.inkscape.org/namespaces/inkscape"
   xmlns:sodipodi="http://sodipodi.sourceforge.net/DTD/sodipodi-0.dtd"
   xmlns="http://www.w3.org/2000/svg"
   xmlns:svg="http://www.w3.org/2000/svg">
  <defs
     id="defs8" />
  <sodipodi:namedview
     id="namedview6"
     pagecolor="#ffffff"
     bordercolor="#666666"
     borderopacity="1.0"
     inkscape:pageshadow="2"
     inkscape:pageopacity="0.0"
     inkscape:pagecheckerboard="0"
     showgrid="false"
     inkscape:zoom="1.2792969"
     inkscape:cx="296.25648"
     inkscape:cy="302.11908"
     inkscape:window-width="960"
     inkscape:window-height="1017"
     inkscape:window-x="0"
     inkscape:window-y="30"
     inkscape:window-maximized="0"
     inkscape:current-layer="svg4" />
  <path
     id="path3500"
     style="color:#000000;fill:#000000;stroke-width:18.2372;stroke-linecap:round;stroke-linejoin:round;stroke-dashoffset:28;-inkscape-stroke:none"
     d="M 27.34375 70.505859 C 21.13291 70.50639 15.394123 73.820265 12.289062 79.199219 C 10.763058 81.841656 9.9594449 84.839205 9.9589844 87.890625 L 9.9589844 103.04688 C 9.9589518 112.64822 17.742396 120.43168 27.34375 120.43164 C 35.910098 120.20739 43.035344 113.77436 44.130859 105.27539 L 72.544922 105.27539 C 82.146278 105.27543 89.929722 97.491981 89.929688 87.890625 C 89.929723 78.289269 82.146278 70.505823 72.544922 70.505859 L 27.34375 70.505859 z M 142.08398 70.505859 C 132.48263 70.505826 124.69918 78.289271 124.69922 87.890625 C 124.69918 97.491978 132.48263 105.27542 142.08398 105.27539 L 211.62305 105.27539 C 221.2244 105.27542 229.00785 97.491978 229.00781 87.890625 C 229.00785 78.289271 221.2244 70.505826 211.62305 70.505859 L 142.08398 70.505859 z M 281.16211 70.505859 C 271.56075 70.505821 263.7773 78.289267 263.77734 87.890625 C 263.7773 97.491982 271.56075 105.27543 281.16211 105.27539 L 350.70117 105.27539 C 360.30253 105.27543 368.08598 97.491982 368.08594 87.890625 C 368.08598 78.289267 360.30253 70.505821 350.70117 70.505859 L 281.16211 70.505859 z M 419.82031 70.923828 C 410.21896 70.923795 402.43551 78.70724 402.43555 88.308594 L 402.43555 157.84766 C 402.43552 167.44901 410.21896 175.23245 419.82031 175.23242 C 429.42167 175.23246 437.20511 167.44902 437.20508 157.84766 L 437.20508 88.308594 C 437.20512 78.707236 429.42167 70.92379 419.82031 70.923828 z M 27.34375 155.20117 C 17.742393 155.20113 9.9589463 162.98458 9.9589844 172.58594 L 9.9589844 242.125 C 9.9589463 251.72636 17.742393 259.50981 27.34375 259.50977 C 36.945108 259.50981 44.728554 251.72636 44.728516 242.125 L 44.728516 172.58594 C 44.728554 162.98458 36.945108 155.20113 27.34375 155.20117 z M 462.45703 186.66211 C 458.92395 186.66211 455.39079 188.00959 452.69531 190.70508 L 323.22266 320.17773 L 262.77344 259.73047 C 257.38248 254.33896 248.64097 254.33896 243.25 259.73047 L 223.72656 279.25391 C 218.33558 284.6454 218.33558 293.38637 223.72656 298.77734 L 313.46094 388.50977 C 318.85189 393.90127 327.59091 393.90074 332.98242 388.50977 L 491.74023 229.75195 C 497.13119 224.36045 497.13119 215.61947 491.74023 210.22852 L 472.21875 190.70508 C 469.52328 188.00959 465.99012 186.66211 462.45703 186.66211 z M 27.34375 294.2793 C 17.742396 294.27926 9.9589518 302.06271 9.9589844 311.66406 L 9.9589844 381.20312 C 9.9589463 390.80448 17.742393 398.58793 27.34375 398.58789 C 36.945108 398.58793 44.728554 390.80448 44.728516 381.20312 L 44.728516 311.66406 C 44.728549 302.06271 36.945104 294.27926 27.34375 294.2793 z M 462.45703 306.4043 C 458.92395 306.4043 455.39079 307.75178 452.69531 310.44727 L 323.22266 439.91992 L 262.77344 379.47266 C 257.38248 374.08116 248.64097 374.08116 243.25 379.47266 L 223.72656 398.99609 C 218.33558 404.38759 218.33558 413.12856 223.72656 418.51953 L 313.46094 508.25195 C 318.85189 513.64346 327.59091 513.64292 332.98242 508.25195 L 491.74023 349.49414 C 497.13119 344.10263 497.13119 335.36167 491.74023 329.9707 L 472.21875 310.44727 C 469.52328 307.75178 465.99012 306.4043 462.45703 306.4043 z M 91.873047 368.82812 C 82.271689 368.82808 74.488243 376.61153 74.488281 386.21289 C 74.488243 395.81425 82.271689 403.5977 91.873047 403.59766 L 162.87109 403.59766 C 172.47245 403.5977 180.2559 395.81425 180.25586 386.21289 C 180.2559 376.61153 172.47245 368.82809 162.87109 368.82812 L 91.873047 368.82812 z " />
</svg>
