<?xml version="1.0" encoding="UTF-8" standalone="no"?>
<svg
   aria-hidden="true"
   focusable="false"
   data-prefix="fab"
   data-icon="creative-commons-zero"
   role="img"
   viewBox="0 0 496 512"
   class="svg-inline--fa fa-creative-commons-zero fa-w-16 fa-5x"
   version="1.1"
   id="svg4"
   sodipodi:docname="sigma-alt.svg"
   inkscape:version="1.1 (c68e22c387, 2021-05-23)"
   xmlns:inkscape="http://www.inkscape.org/namespaces/inkscape"
   xmlns:sodipodi="http://sodipodi.sourceforge.net/DTD/sodipodi-0.dtd"
   xmlns="http://www.w3.org/2000/svg"
   xmlns:svg="http://www.w3.org/2000/svg">
  <defs
     id="defs8" />
  <sodipodi:namedview
     id="namedview6"
     pagecolor="#ffffff"
     bordercolor="#666666"
     borderopacity="1.0"
     inkscape:pageshadow="2"
     inkscape:pageopacity="0.0"
     inkscape:pagecheckerboard="0"
     showgrid="false"
     inkscape:zoom="1"
     inkscape:cx="238"
     inkscape:cy="234.5"
     inkscape:window-width="960"
     inkscape:window-height="1017"
     inkscape:window-x="960"
     inkscape:window-y="30"
     inkscape:window-maximized="0"
     inkscape:current-layer="text467"
     inkscape:snap-global="false" />
  <g
     aria-label="X̅"
     id="text467"
     style="font-size:192px;line-height:1.25;font-family:'Neutra Text';-inkscape-font-specification:'Neutra Text';letter-spacing:0px;word-spacing:0px">
    <path
       id="path1483"
       style="color:#000000;-inkscape-font-specification:'Neutra Text';fill:#000000;stroke-width:1.11998;stroke-linecap:round;stroke-linejoin:round;-inkscape-stroke:none"
       d="M 337.94336 32.232422 C 260.76393 32.696745 183.5851 33.102908 106.40625 33.652344 C 86.800936 33.791914 67.191646 33.755618 47.589844 34.125 C 40.416457 34.260177 33.804905 39.382783 31.123047 46.029297 C 29.030575 51.215124 29.250054 57.338711 32.074219 62.212891 C 34.084505 65.682412 36.145142 69.122606 38.189453 72.572266 C 71.144762 128.18257 104.44199 183.59128 137.17188 239.33398 C 138.78011 242.07299 138.22437 245.67348 136.53906 248.44727 C 118.94508 277.40457 101.93355 306.71291 84.634766 335.84766 C 66.988751 365.56725 49.123149 395.15869 31.734375 425.0293 C 28.373296 430.803 29.140257 438.48254 32.896484 443.99805 C 36.376958 449.10865 42.325701 452.4751 48.544922 452.55273 C 52.73634 452.60503 56.927467 452.62599 61.119141 452.65039 C 103.9652 452.89948 146.81041 453.21864 189.65625 453.51953 C 189.58055 446.97953 190.11016 440.52057 190.42969 432.44141 C 190.93952 419.55075 194.4825 404.76059 205.76953 397.27734 C 211.97383 393.21379 221.55239 389.86909 231.37109 389.87109 C 233.1501 389.80209 238.14686 390.22133 241.17383 390.29883 C 288.29056 391.50456 354.15381 391.40186 397.125 391.24219 C 399.5961 385.31612 402.03993 379.3787 404.39062 373.4043 C 406.73386 367.44888 403.73264 360.05801 398.17969 356.8418 C 395.4236 355.2455 392.38901 354.23737 389.46484 353.00195 C 377.49457 347.94468 365.60664 342.66391 353.43945 338.10352 C 347.24509 335.78181 339.49013 339.1089 336.63086 345.16602 C 334.05838 350.61559 331.76955 356.21827 329.45312 361.76758 C 327.44757 366.57213 325.7231 371.50671 323.42188 376.17578 C 322.00434 379.0519 318.69355 380.67059 315.38477 380.62695 C 269.27557 380.01885 223.15725 380.30504 177.04688 379.79492 C 174.71023 379.76902 172.72401 378.09149 171.27734 376.29297 C 169.53462 374.12639 168.74184 371.08859 169.87109 368.4707 C 170.77467 366.37596 171.83516 364.35727 172.82617 362.30273 C 181.69154 343.92318 189.88501 325.23069 198.63867 306.79883 C 206.77226 289.6726 215.29665 272.7251 223.04102 255.41992 C 227.54064 245.36529 226.21453 233.34325 221.125 223.5918 C 206.95469 196.4417 193.52108 168.91291 179.99609 141.43555 C 176.17591 133.67447 172.11679 126.02355 168.54688 118.14648 C 167.61912 116.09938 168.23312 113.69288 169.14453 111.66797 C 170.29219 109.11818 172.66456 107.02147 175.5293 106.85742 C 177.79046 106.72793 180.0542 106.78047 182.31836 106.76367 C 224.63418 106.44707 266.95104 105.96829 309.26758 106.00977 C 312.6331 106.01277 315.72606 108.52289 316.94922 111.78125 C 320.01376 119.94482 323.19668 128.08287 326.92383 135.96484 C 329.63552 141.69936 336.99045 144.54233 343.0918 142.77734 C 346.18566 141.88236 349.07981 140.4422 352.05273 139.22266 C 364.00292 134.32051 376.08043 129.69606 387.79883 124.26562 C 393.467 121.63894 396.3067 114.47435 394.81836 108.41406 C 394.04157 105.25108 392.59269 102.31709 391.38477 99.306641 C 385.1929 83.874941 378.91391 68.46962 372.19727 53.259766 C 367.55283 42.742426 357.28832 35.047668 345.98438 32.914062 C 343.33524 32.414043 340.63784 32.173076 337.94336 32.232422 z M 241.55273 405.82812 C 234.22313 405.82812 227.95641 406.93264 222.75195 409.14453 C 217.59087 411.35642 213.62336 414.58759 210.84766 418.83789 C 208.11532 423.04482 206.74805 427.57806 206.74805 432.43555 C 206.74805 439.982 209.67624 446.37913 215.53125 451.62695 C 219.69481 455.35681 226.9376 458.49974 237.25977 461.05859 C 245.2833 463.05363 250.42247 464.44199 252.67773 465.22266 C 255.97389 466.39366 258.27311 467.78201 259.57422 469.38672 C 260.9187 470.94805 261.5918 472.85607 261.5918 475.11133 C 261.5918 478.62433 260.00784 481.70401 256.8418 484.34961 C 253.71913 486.95184 249.05744 488.25195 242.85547 488.25195 C 237.00046 488.25195 232.33682 486.77731 228.86719 483.82812 C 225.44092 480.87894 223.16474 476.26137 222.03711 469.97266 L 203.30078 471.79297 C 204.55852 482.4621 208.41866 490.59467 214.88086 496.18945 C 221.34306 501.74087 230.60317 504.51758 242.66016 504.51758 C 250.94391 504.51758 257.86069 503.36699 263.41211 501.06836 C 268.96353 498.72636 273.25704 495.17114 276.29297 490.40039 C 279.3289 485.62964 280.84766 480.51155 280.84766 475.04688 C 280.84766 469.01838 279.56862 463.96549 277.00977 459.88867 C 274.49428 455.76848 270.98123 452.53732 266.4707 450.19531 C 262.00355 447.80994 255.08481 445.51072 245.7168 443.29883 C 236.34878 441.08694 230.45023 438.96224 228.02148 436.92383 C 226.11318 435.31912 225.16016 433.39003 225.16016 431.13477 C 225.16016 428.66265 226.17839 426.68749 228.2168 425.21289 C 231.38284 422.91426 235.76459 421.76562 241.35938 421.76562 C 246.78068 421.76562 250.83447 422.85101 253.52344 425.01953 C 256.25578 427.14468 258.03534 430.65773 258.85938 435.55859 L 278.11523 434.71289 C 277.81164 425.95206 274.6246 418.94704 268.55273 413.69922 C 262.52424 408.4514 253.52298 405.82812 241.55273 405.82812 z M 296.91602 407.45312 L 296.91602 458.32812 C 296.91602 468.99725 297.54499 477.06267 298.80273 482.52734 C 299.67014 486.21383 301.47079 489.74992 304.20312 493.13281 C 306.93546 496.47234 310.64216 499.20297 315.32617 501.32812 C 320.05355 503.40991 326.97229 504.45117 336.08008 504.45117 C 343.62653 504.45117 349.74177 503.49814 354.42578 501.58984 C 359.10979 499.63817 362.83953 497.03599 365.61523 493.7832 C 368.43431 490.53042 370.36341 486.53988 371.4043 481.8125 C 372.44519 477.08512 372.9668 468.99667 372.9668 457.54688 L 372.9668 407.45312 L 353.70898 407.45312 L 353.70898 460.21289 C 353.70898 467.75935 353.4271 473.15933 352.86328 476.41211 C 352.29947 479.66489 350.63118 482.41857 347.85547 484.67383 C 345.07976 486.88572 340.95882 487.99219 335.49414 487.99219 C 330.11621 487.99219 325.86486 486.82247 322.74219 484.48047 C 319.66289 482.09509 317.71271 478.95021 316.88867 475.04688 C 316.4116 472.61813 316.17188 467.30444 316.17188 459.10742 L 316.17188 407.45312 L 296.91602 407.45312 z M 393.00391 407.45312 L 393.00391 502.82617 L 410.89453 502.82617 L 410.89453 427.75195 L 429.75977 502.82617 L 448.30078 502.82617 L 467.23242 427.75195 L 467.23242 502.82617 L 485.12305 502.82617 L 485.12305 407.45312 L 456.23828 407.45312 L 439.12695 472.50977 L 421.82227 407.45312 L 393.00391 407.45312 z " />
  </g>
</svg>
