<?xml version="1.0" encoding="UTF-8" standalone="no"?>
<svg
   aria-hidden="true"
   focusable="false"
   data-prefix="fab"
   data-icon="creative-commons-zero"
   role="img"
   viewBox="0 0 496 512"
   class="svg-inline--fa fa-creative-commons-zero fa-w-16 fa-5x"
   version="1.1"
   id="svg4"
   sodipodi:docname="sigma.svg"
   inkscape:version="1.1 (c68e22c387, 2021-05-23)"
   xmlns:inkscape="http://www.inkscape.org/namespaces/inkscape"
   xmlns:sodipodi="http://sodipodi.sourceforge.net/DTD/sodipodi-0.dtd"
   xmlns="http://www.w3.org/2000/svg"
   xmlns:svg="http://www.w3.org/2000/svg">
  <defs
     id="defs8" />
  <sodipodi:namedview
     id="namedview6"
     pagecolor="#ffffff"
     bordercolor="#666666"
     borderopacity="1.0"
     inkscape:pageshadow="2"
     inkscape:pageopacity="0.0"
     inkscape:pagecheckerboard="0"
     showgrid="false"
     inkscape:zoom="1.4142136"
     inkscape:cx="214.96046"
     inkscape:cy="240.06275"
     inkscape:window-width="1920"
     inkscape:window-height="1017"
     inkscape:window-x="0"
     inkscape:window-y="30"
     inkscape:window-maximized="1"
     inkscape:current-layer="text467"
     inkscape:snap-global="false" />
  <g
     aria-label="X̅"
     id="text467"
     style="font-size:192px;line-height:1.25;font-family:'Neutra Text';-inkscape-font-specification:'Neutra Text';letter-spacing:0px;word-spacing:0px">
    <path
       id="path1483"
       style="color:#000000;-inkscape-font-specification:'Neutra Text';fill:#000000;stroke-width:1.11998;stroke-linecap:round;stroke-linejoin:round;-inkscape-stroke:none"
       d="m 375.12305,66.556641 c -77.17943,0.464324 -154.3593,0.869193 -231.53815,1.418629 -19.60531,0.13957 -39.21396,0.103371 -58.815761,0.472753 -7.173387,0.135177 -13.784321,5.25845 -16.466179,11.904965 -2.092472,5.185826 -1.873218,11.309941 0.950946,16.184121 2.010286,3.469521 4.069604,6.909461 6.113915,10.359121 32.955309,55.6103 66.253139,111.01913 98.983029,166.76183 1.60824,2.73901 1.05194,6.33951 -0.63337,9.1133 -17.59398,28.9573 -34.60407,58.26565 -51.90285,87.4004 -17.64602,29.71959 -35.512433,59.31077 -52.901207,89.18138 -3.361079,5.7737 -2.594181,13.45343 1.162046,18.96894 3.480474,5.1106 9.429009,8.47603 15.64823,8.55366 4.191418,0.0523 8.382244,0.0735 12.573918,0.0979 95.287233,0.55396 190.573123,1.44526 285.861283,1.74319 11.56714,0.0362 22.78336,-6.34778 29.34388,-15.86914 3.00743,-4.36472 4.7708,-9.38657 6.81333,-14.22868 7.14494,-16.93809 14.52269,-33.78471 21.25324,-50.89068 2.34323,-5.95542 -0.65699,-13.34685 -6.20994,-16.56306 -2.75609,-1.5963 -5.79214,-2.60491 -8.71631,-3.84033 -11.97027,-5.05727 -23.85824,-10.33778 -36.02543,-14.89817 -6.19436,-2.32171 -13.94912,1.00613 -16.80839,7.06325 -2.57248,5.44957 -4.8602,11.0518 -7.17663,16.60111 -2.00555,4.80455 -3.72987,9.73982 -6.03109,14.40889 -1.41754,2.87612 -4.7291,4.49361 -8.03788,4.44997 -46.1092,-0.6081 -92.22674,-0.32071 -138.33712,-0.83083 -2.33665,-0.0259 -4.32326,-1.70335 -5.76993,-3.50187 -1.74272,-2.16658 -2.53481,-5.20447 -1.40556,-7.82236 0.90358,-2.09474 1.96396,-4.11447 2.95497,-6.16901 8.86537,-18.37955 17.05794,-37.07161 25.8116,-55.50347 8.13359,-17.12623 16.65731,-34.07332 24.40168,-51.3785 4.49962,-10.05463 3.17511,-22.07698 -1.91442,-31.82843 -14.17031,-27.1501 -27.6041,-54.67844 -41.12909,-82.1558 -3.82018,-7.76108 -7.88008,-15.41281 -11.45,-23.28988 -0.92775,-2.0471 -0.31406,-4.45286 0.59735,-6.47777 1.14766,-2.54979 3.5212,-4.64674 6.38594,-4.81079 2.26116,-0.12949 4.52515,-0.0763 6.78931,-0.0932 42.31582,-0.3166 84.63248,-0.79671 126.94902,-0.75523 3.36552,0.003 6.45775,2.5139 7.68091,5.77226 3.06454,8.16357 6.24677,16.30253 9.97392,24.1845 2.71169,5.73452 10.06819,8.5775 16.16954,6.81251 3.09386,-0.89498 5.98687,-2.33681 8.95979,-3.55635 11.95019,-4.90215 24.02876,-9.52668 35.74716,-14.95711 5.66817,-2.62669 8.5068,-9.78991 7.01846,-15.8502 -0.77679,-3.16298 -2.2258,-6.09825 -3.43372,-9.10869 -6.19187,-15.4317 -12.46958,-30.83546 -19.18622,-46.045314 -4.64444,-10.51734 -14.91006,-18.213717 -26.21401,-20.347323 -2.64913,-0.500019 -5.34573,-0.739807 -8.04021,-0.680462 -10e-6,0 1e-5,-3e-5 0,-3e-5 z"
       sodipodi:nodetypes="ssssssssssssssssssssssssssssssssssssssssssssssss" />
  </g>
</svg>
