<?xml version="1.0" encoding="UTF-8" standalone="no"?>
<svg
   aria-hidden="true"
   focusable="false"
   data-prefix="fas"
   data-icon="arrow-down-a-z"
   class="svg-inline--fa fa-arrow-down-a-z "
   role="img"
   viewBox="0 0 512 512"
   version="1.1"
   id="svg4"
   sodipodi:docname="sort custom.svg"
   inkscape:version="1.2.2 (b0a8486541, 2022-12-01)"
   xmlns:inkscape="http://www.inkscape.org/namespaces/inkscape"
   xmlns:sodipodi="http://sodipodi.sourceforge.net/DTD/sodipodi-0.dtd"
   xmlns="http://www.w3.org/2000/svg"
   xmlns:svg="http://www.w3.org/2000/svg">
  <defs
     id="defs8" />
  <sodipodi:namedview
     id="namedview6"
     pagecolor="#ffffff"
     bordercolor="#000000"
     borderopacity="0.25"
     inkscape:showpageshadow="2"
     inkscape:pageopacity="0.0"
     inkscape:pagecheckerboard="0"
     inkscape:deskcolor="#d1d1d1"
     showgrid="false"
     inkscape:zoom="0.828125"
     inkscape:cx="256"
     inkscape:cy="426.86792"
     inkscape:window-width="1920"
     inkscape:window-height="1019"
     inkscape:window-x="0"
     inkscape:window-y="30"
     inkscape:window-maximized="1"
     inkscape:current-layer="svg4" />
  <path
     fill="currentColor"
     d="m 239.6,373.1 c 11.94,-13.05 11.06,-33.31 -1.969,-45.27 -13.55,-12.42 -33.76,-10.52 -45.22,1.973 L 160,366.1 V 64.03 C 160,46.33 145.67,32 128,32 110.33,32 96,46.33 96,64.03 v 302 L 63.6,330.64 C 51.64,317.7 31.39,316.7 18.38,328.7 5.35,340.65 4.48,360.92 16.411,373.97 l 87.1,96.09 c 12.12,13.26 35.06,13.26 47.19,0 z M 360.50697,32.023823 c -11.76292,0.461762 -22.87344,8.426301 -26.99087,19.47145 -1.94101,4.918992 -2.25644,10.289704 -2.056,15.521128 v 52.823829 c -16.14139,-9.67707 -32.24651,-19.41959 -48.4528,-28.982073 -10.53232,-5.46946 -24.26567,-3.9369 -33.28939,3.78965 -8.55595,7.078753 -12.81141,19.065053 -10.31618,29.928473 1.87785,8.82683 7.90013,16.62959 15.90921,20.76816 15.76996,9.48778 31.54488,18.96564 47.32689,28.43329 -16.96643,10.18747 -33.96724,20.31927 -50.87066,30.60914 -9.85382,6.74186 -14.97754,19.69434 -12.31883,31.34683 2.21433,10.5394 10.36553,19.67415 20.71684,22.78622 8.69778,2.74769 18.59311,1.34257 26.16361,-3.75377 15.04828,-9.01133 30.0939,-18.02543 45.13131,-27.05482 0.009,19.81303 -0.0388,39.62753 0.0816,59.43957 0.68467,11.98671 9.22815,23.10774 20.66128,26.80363 10.41082,3.57132 22.72719,1.01208 30.68716,-6.64207 6.54422,-6.1126 10.15837,-15.19442 9.63268,-24.1316 0.0134,-18.48854 0.0211,-36.97708 0.0174,-55.46563 16.14704,9.68575 32.26647,19.41924 48.47627,28.99762 10.50543,5.43453 24.18149,3.9224 33.19887,-3.75088 8.61261,-7.08247 12.88813,-19.12473 10.37277,-30.02798 -1.88485,-8.78032 -7.86441,-16.54863 -15.83039,-20.68002 -15.79166,-9.50283 -31.5886,-18.99519 -47.39331,-28.47624 17.00018,-10.20704 34.03881,-20.35249 50.96577,-30.67835 9.80436,-6.76912 14.88096,-19.69946 12.21156,-31.3244 -2.26861,-10.75919 -10.7553,-20.021063 -21.39459,-22.946753 -8.66447,-2.52022 -18.39599,-0.92643 -25.83126,4.17728 -14.92836,8.941583 -29.8551,17.884183 -44.77569,26.838633 -0.006,-19.84948 0.0469,-39.700513 -0.0879,-59.548919 -0.73307,-12.017305 -9.36319,-23.146853 -20.86789,-26.749441 -3.55861,-1.185587 -7.33389,-1.662362 -11.07744,-1.521957 z"
     id="path2"
     sodipodi:nodetypes="ccccsssccccccc" />
</svg>
