<?xml version="1.0" encoding="UTF-8" standalone="no"?>
<svg
   aria-hidden="true"
   focusable="false"
   data-prefix="fas"
   data-icon="sync-alt"
   role="img"
   viewBox="0 0 512 512"
   class="svg-inline--fa fa-sync-alt fa-w-16 fa-7x"
   version="1.1"
   id="svg4"
   sodipodi:docname="sync zoom.svg"
   inkscape:version="1.1 (c68e22c387, 2021-05-23)"
   xmlns:inkscape="http://www.inkscape.org/namespaces/inkscape"
   xmlns:sodipodi="http://sodipodi.sourceforge.net/DTD/sodipodi-0.dtd"
   xmlns="http://www.w3.org/2000/svg"
   xmlns:svg="http://www.w3.org/2000/svg">
  <defs
     id="defs8" />
  <sodipodi:namedview
     id="namedview6"
     pagecolor="#ffffff"
     bordercolor="#666666"
     borderopacity="1.0"
     inkscape:pageshadow="2"
     inkscape:pageopacity="0.0"
     inkscape:pagecheckerboard="0"
     showgrid="false"
     inkscape:zoom="0.63964844"
     inkscape:cx="278.27786"
     inkscape:cy="410.38168"
     inkscape:window-width="1920"
     inkscape:window-height="1017"
     inkscape:window-x="0"
     inkscape:window-y="30"
     inkscape:window-maximized="1"
     inkscape:current-layer="svg4"
     inkscape:snap-others="false"
     inkscape:object-nodes="false"
     inkscape:snap-nodes="false"
     inkscape:snap-global="false" />
  <path
     id="path2"
     style="stroke-width:0.884661"
     class=""
     d="M 227.39648 8 C 120.18704 8 30.942196 84.897349 11.800781 186.54492 C 10.573756 193.06399 15.612904 199.08594 22.246094 199.08594 L 72.939453 199.08594 C 77.830746 199.08594 82.057109 195.73663 83.246094 190.99219 C 99.579595 125.81743 158.73763 78.833594 227.26172 78.773438 C 265.33754 78.739818 301.22849 92.934274 328.88477 118.83008 L 291.94922 155.76367 C 278.57403 169.13974 288.04706 192.00977 306.96289 192.00977 L 425.56055 192.00977 C 437.28674 192.00977 446.79102 182.50353 446.79102 170.77734 L 446.79102 52.181641 C 446.79102 33.265814 423.92207 23.792775 410.54688 37.167969 L 378.95117 68.763672 C 339.56251 31.12222 286.18045 8 227.39648 8 z M 330.88477 227.92773 L 329.96484 227.93359 C 311.13674 228.13818 292.38423 233.20188 276.04297 242.56445 C 256.97821 253.41485 241.24039 270.00429 231.42773 289.625 C 222.83358 306.67974 218.81005 325.97523 219.73828 345.04297 C 220.62619 364.80197 226.91637 384.2823 237.77148 400.81836 C 249.7749 419.2355 267.32291 433.98093 287.56055 442.57812 C 308.19967 451.42681 331.53659 453.74389 353.53711 449.29883 C 366.57391 446.6798 379.12259 441.67715 390.4043 434.64062 C 411.69254 455.84706 432.95982 477.07519 454.26172 498.26758 C 458.24041 502.04311 464.41385 503.24135 469.51172 501.21289 C 471.98055 500.31303 474.02067 498.58975 475.78711 496.6875 C 480.54345 491.90884 485.34607 487.17308 490.07422 482.36719 C 493.78074 478.33127 494.86374 472.15968 492.79492 467.0918 C 491.85793 464.59808 490.08595 462.55262 488.1582 460.76367 C 467.49628 440.17048 446.8338 419.57755 426.17188 398.98438 C 436.11093 383.18293 441.96113 364.8442 442.99805 346.20508 C 444.12618 327.05662 440.26253 307.62604 431.76172 290.42188 C 421.89535 270.28303 405.8013 253.27135 386.25391 242.2832 C 369.46788 232.77558 350.17114 227.8024 330.88477 227.92773 z M 29.232422 262.7832 C 17.506237 262.7832 8 272.28749 8 284.01367 L 8 402.61133 C 8 421.52715 30.868947 431.0002 44.244141 417.625 L 75.839844 386.0293 C 115.2285 423.67075 168.61251 446.79102 227.39648 446.79102 C 230.48559 446.79102 233.55525 446.71242 236.61328 446.58594 C 226.97807 438.0054 218.46162 428.16608 211.45312 417.33789 C 202.3622 403.4712 195.8842 387.97325 192.17188 371.83203 C 167.52874 365.86679 144.7959 353.64888 125.9082 335.96289 L 162.8418 299.02734 C 176.21699 285.65126 166.74396 262.7832 147.82812 262.7832 L 29.232422 262.7832 z M 331.39844 274.15039 C 344.79516 274.11649 358.16628 278.31544 369.10352 286.05859 C 381.60929 294.80874 390.89672 308.05609 394.76562 322.82812 C 398.87065 338.19383 397.177 355.04517 389.96094 369.23242 C 383.09939 382.91576 371.27739 394.02399 357.18945 400.01367 C 341.60829 406.7238 323.4082 407.01639 307.61328 400.83203 C 293.35477 395.32422 281.19131 384.63132 273.875 371.21289 C 267.05986 358.86802 264.48668 344.28618 266.50391 330.3418 C 268.50013 316.06384 275.43469 302.55427 285.82227 292.56445 C 296.13467 282.53548 309.84173 276.07201 324.15039 274.55078 C 326.55681 274.28248 328.97742 274.1579 331.39844 274.15039 z " />
</svg>
