<?xml version="1.0" encoding="UTF-8" standalone="no"?>
<svg
   aria-hidden="true"
   focusable="false"
   data-prefix="fas"
   data-icon="sync-alt"
   role="img"
   viewBox="0 0 512 512"
   class="svg-inline--fa fa-sync-alt fa-w-16 fa-7x"
   version="1.1"
   id="svg4"
   sodipodi:docname="sync bind.svg"
   inkscape:version="1.1 (c68e22c387, 2021-05-23)"
   xmlns:inkscape="http://www.inkscape.org/namespaces/inkscape"
   xmlns:sodipodi="http://sodipodi.sourceforge.net/DTD/sodipodi-0.dtd"
   xmlns="http://www.w3.org/2000/svg"
   xmlns:svg="http://www.w3.org/2000/svg">
  <defs
     id="defs8" />
  <sodipodi:namedview
     id="namedview6"
     pagecolor="#ffffff"
     bordercolor="#666666"
     borderopacity="1.0"
     inkscape:pageshadow="2"
     inkscape:pageopacity="0.0"
     inkscape:pagecheckerboard="0"
     showgrid="false"
     inkscape:zoom="0.45229975"
     inkscape:cx="256.46709"
     inkscape:cy="255.36163"
     inkscape:window-width="1920"
     inkscape:window-height="1017"
     inkscape:window-x="0"
     inkscape:window-y="30"
     inkscape:window-maximized="1"
     inkscape:current-layer="svg4"
     inkscape:snap-others="false"
     inkscape:object-nodes="false"
     inkscape:snap-nodes="false"
     inkscape:snap-global="false" />
  <path
     id="path2"
     style="stroke-width:0.884661"
     class=""
     d="M 227.39648,8 C 120.18704,8 30.942196,84.897347 11.800781,186.54492 c -1.227025,6.51907 3.812123,12.54102 10.445313,12.54102 h 50.693359 c 4.891293,0 9.117656,-3.34931 10.306641,-8.09375 C 99.579595,125.81743 158.73763,78.833594 227.26172,78.773438 c 38.07582,-0.03362 73.96677,14.160838 101.62305,40.056642 l -36.93555,36.93359 c -13.37519,13.37607 -3.90216,36.2461 15.01367,36.2461 h 118.59766 c 11.72619,0 21.23047,-9.50624 21.23047,-21.23243 V 52.181641 c 0,-18.915827 -22.86894,-28.388866 -36.24414,-15.013672 L 378.95117,68.763672 C 339.56251,31.12222 286.18045,8 227.39648,8 Z M 29.232422,262.7832 C 17.506237,262.7832 8,272.28749 8,284.01367 v 118.59766 c 0,18.91582 22.868947,28.38887 36.244141,15.01367 l 31.595703,-31.5957 c 32.102026,30.67804 73.503856,51.70141 119.544926,58.43359 -0.007,-2.2688 -0.0297,-4.53815 0.0137,-6.80664 -0.0783,-5.58428 1.45807,-11.16143 4.36133,-15.92969 4.59684,-7.72233 12.68868,-13.30876 21.60546,-14.62109 v -15.75586 c 0.0683,-5.13115 -0.29654,-10.36889 0.44336,-15.45899 -35.93778,-1.32098 -69.63556,-15.33396 -95.90039,-39.92773 l 36.9336,-36.93555 c 13.37519,-13.37608 3.90215,-36.24414 -15.01368,-36.24414 z"
     sodipodi:nodetypes="scssccccssssscssssscccccccccss" />
  <path
     id="path2-3"
     d="m 329.43093,259.24021 c -8.20415,0 -14.85754,6.6534 -14.85754,14.85755 v 44.57263 c 0,8.20414 6.65339,14.85754 14.85754,14.85754 h 18.57193 v 29.71509 h -93.59781 c -9.83384,0 -17.83377,7.99994 -17.83377,17.83377 v 41.59641 h -11.14315 c -8.20416,0 -14.85755,6.6534 -14.85755,14.85755 v 44.57263 c 0,8.20414 6.65339,14.85754 14.85755,14.85754 h 44.57263 c 8.20414,0 14.85754,-6.6534 14.85754,-14.85754 v -44.57263 c 0,-8.20415 -6.6534,-14.85755 -14.85754,-14.85755 H 258.8576 v -37.14387 h 89.14526 V 422.6732 H 336.8597 c -8.20414,0 -14.85754,6.6534 -14.85754,14.85755 v 44.57263 c 0,8.20414 6.6534,14.85754 14.85754,14.85754 h 44.57264 c 8.20415,0 14.85754,-6.6534 14.85754,-14.85754 v -44.57263 c 0,-8.20415 -6.65339,-14.85755 -14.85754,-14.85755 h -11.14316 v -37.14387 h 89.14527 v 37.14387 h -11.14316 c -8.20415,0 -14.85754,6.6534 -14.85754,14.85755 v 44.57263 c 0,8.20414 6.65339,14.85754 14.85754,14.85754 h 44.57263 c 8.20415,0 14.85755,-6.6534 14.85755,-14.85754 v -44.57263 c 0,-8.20415 -6.6534,-14.85755 -14.85755,-14.85755 h -11.14316 v -41.59641 c 0,-9.82919 -7.99993,-17.83377 -17.83376,-17.83377 h -93.59782 v -29.71509 h 18.57194 c 8.20414,0 14.85753,-6.6534 14.85753,-14.85754 v -44.57263 c 0,-8.20415 -6.65339,-14.85755 -14.85753,-14.85755 z"
     style="stroke-width:0.464298" />
</svg>
