<?xml version="1.0" encoding="UTF-8" standalone="no"?>
<svg
   xmlns:dc="http://purl.org/dc/elements/1.1/"
   xmlns:cc="http://creativecommons.org/ns#"
   xmlns:rdf="http://www.w3.org/1999/02/22-rdf-syntax-ns#"
   xmlns:svg="http://www.w3.org/2000/svg"
   xmlns="http://www.w3.org/2000/svg"
   xmlns:sodipodi="http://sodipodi.sourceforge.net/DTD/sodipodi-0.dtd"
   xmlns:inkscape="http://www.inkscape.org/namespaces/inkscape"
   viewBox="0 0 448 512"
   version="1.1"
   id="svg4"
   sodipodi:docname="trash-all.svg"
   inkscape:version="1.0.2 (e86c870879, 2021-01-15)">
  <metadata
     id="metadata10">
    <rdf:RDF>
      <cc:Work
         rdf:about="">
        <dc:format>image/svg+xml</dc:format>
        <dc:type
           rdf:resource="http://purl.org/dc/dcmitype/StillImage" />
        <dc:title></dc:title>
      </cc:Work>
    </rdf:RDF>
  </metadata>
  <defs
     id="defs8" />
  <sodipodi:namedview
     pagecolor="#ffffff"
     bordercolor="#666666"
     borderopacity="1"
     objecttolerance="10"
     gridtolerance="10"
     guidetolerance="10"
     inkscape:pageopacity="0"
     inkscape:pageshadow="2"
     inkscape:window-width="1920"
     inkscape:window-height="1017"
     id="namedview6"
     showgrid="false"
     inkscape:zoom="1.2167969"
     inkscape:cx="224"
     inkscape:cy="256"
     inkscape:window-x="0"
     inkscape:window-y="30"
     inkscape:window-maximized="1"
     inkscape:current-layer="svg4" />
  <!-- Font Awesome Free 5.15.3 by @fontawesome - https://fontawesome.com License - https://fontawesome.com/license/free (Icons: CC BY 4.0, Fonts: SIL OFL 1.1, Code: MIT License) -->
  <path
     id="path2-3"
     style="stroke-width:0.654213"
     d="M 109.12305 0 A 15.517923 15.517923 0 0 0 95.123047 8.7011719 L 88.972656 20.935547 L 10.466797 20.935547 A 10.467402 10.467402 0 0 0 0 31.402344 L 0 52.337891 A 10.467402 10.467402 0 0 0 10.466797 62.804688 L 282.61914 62.804688 A 10.467402 10.467402 0 0 0 293.08789 52.337891 L 293.08789 31.402344 A 10.467402 10.467402 0 0 0 282.61914 20.935547 L 204.11523 20.935547 L 197.96484 8.7011719 A 15.701103 15.701103 0 0 0 183.89844 0 L 109.12305 0 z M 20.935547 83.740234 L 34.804688 305.51758 A 31.402206 31.402206 0 0 0 66.140625 334.95703 L 142.42773 334.95703 C 141.06208 313.15562 139.69572 291.35385 138.32617 269.55273 C 130.98561 264.57213 125.01562 257.5779 121.30664 249.51562 C 117.9727 242.53813 116.94275 234.71744 116.90625 227.05469 C 117.02975 220.53945 116.78681 214.022 116.98438 207.50781 C 117.21774 199.2305 119.31004 190.91812 123.65234 183.82031 C 131.49276 170.64697 145.79161 161.39955 161.12891 160.16797 C 181.26127 159.94452 201.39726 160.00512 221.53125 159.97852 C 230.62254 148.22502 244.72101 140.4049 259.5625 139.22266 C 262.60358 139.19284 265.64439 139.18247 268.68555 139.16211 L 272.15234 83.740234 L 20.935547 83.740234 z M 264.03516 177.04297 A 15.517923 15.517923 0 0 0 250.03516 185.74414 L 243.88477 197.97852 L 165.38086 197.97852 A 10.467402 10.467402 0 0 0 154.91211 208.44531 L 154.91211 229.38086 A 10.467402 10.467402 0 0 0 165.38086 239.84766 L 437.5332 239.84766 A 10.467402 10.467402 0 0 0 448 229.38086 L 448 208.44531 A 10.467402 10.467402 0 0 0 437.5332 197.97852 L 359.02734 197.97852 L 352.87695 185.74414 A 15.701103 15.701103 0 0 0 338.8125 177.04297 L 264.03516 177.04297 z M 175.84766 260.7832 L 189.7168 482.56055 A 31.402206 31.402206 0 0 0 221.05273 512 L 381.85938 512 A 31.402206 31.402206 0 0 0 413.19531 482.56055 L 427.06445 260.7832 L 175.84766 260.7832 z " />
</svg>
