<?xml version="1.0" encoding="UTF-8" standalone="no"?>
<svg
   aria-hidden="true"
   focusable="false"
   data-prefix="fab"
   data-icon="creative-commons-zero"
   role="img"
   viewBox="0 0 496 512"
   class="svg-inline--fa fa-creative-commons-zero fa-w-16 fa-5x"
   version="1.1"
   id="svg4"
   sodipodi:docname="average.svg"
   inkscape:version="1.1 (c68e22c387, 2021-05-23)"
   xmlns:inkscape="http://www.inkscape.org/namespaces/inkscape"
   xmlns:sodipodi="http://sodipodi.sourceforge.net/DTD/sodipodi-0.dtd"
   xmlns="http://www.w3.org/2000/svg"
   xmlns:svg="http://www.w3.org/2000/svg">
  <defs
     id="defs8" />
  <sodipodi:namedview
     id="namedview6"
     pagecolor="#ffffff"
     bordercolor="#666666"
     borderopacity="1.0"
     inkscape:pageshadow="2"
     inkscape:pageopacity="0.0"
     inkscape:pagecheckerboard="0"
     showgrid="false"
     inkscape:zoom="1.2792969"
     inkscape:cx="187.60305"
     inkscape:cy="291.17557"
     inkscape:window-width="1920"
     inkscape:window-height="1017"
     inkscape:window-x="0"
     inkscape:window-y="30"
     inkscape:window-maximized="1"
     inkscape:current-layer="text467"
     inkscape:snap-global="false" />
  <g
     aria-label="X̅"
     id="text467"
     style="font-size:192px;line-height:1.25;font-family:'Neutra Text';-inkscape-font-specification:'Neutra Text';letter-spacing:0px;word-spacing:0px">
    <path
       id="path1483"
       style="color:#000000;-inkscape-font-specification:'Neutra Text';fill:#000000;stroke-linecap:round;stroke-linejoin:round;-inkscape-stroke:none"
       d="M 140.95508 16.894531 A 22.947294 22.947294 0 0 0 118.00977 39.837891 L 118.00977 49.488281 A 22.947294 22.947294 0 0 0 140.95508 72.431641 L 355.04492 72.431641 A 22.947294 22.947294 0 0 0 377.99023 49.488281 L 377.99023 39.837891 A 22.947294 22.947294 0 0 0 355.04492 16.894531 L 140.95508 16.894531 z M 110.63672 107.13867 C 91.844562 107.13867 80.327993 127.34641 89.623047 143.51172 L 183.17969 301.12305 L 89.623047 458.73438 C 80.125919 474.89968 91.844562 495.10547 110.63672 495.10547 L 169.03516 495.10547 C 177.92606 495.10547 186.00856 490.25754 190.25195 482.37695 C 234.10034 401.55043 236.72727 391.44562 248.04297 365.7832 C 278.15085 426.80721 259.96491 397.91323 305.83398 482.37695 C 310.07737 490.25754 318.36102 495.10547 327.25195 495.10547 L 385.44727 495.10547 C 404.23944 495.10547 415.75793 474.89967 406.46289 458.73438 L 312.70312 301.12305 C 314.11759 298.90033 373.92915 199.07996 406.25977 143.51172 C 415.75688 127.34641 404.03736 107.13867 385.44727 107.13867 L 327.25195 107.13867 C 318.36102 107.13867 310.27855 111.98856 306.03516 119.86914 C 269.6632 186.75308 261.17636 205.54481 248.24414 236.46094 C 220.15691 177.65965 234.30152 201.50392 190.45312 119.86914 C 186.20973 111.98856 177.92606 107.13867 169.03516 107.13867 L 110.63672 107.13867 z " />
  </g>
</svg>
