<?xml version="1.0" encoding="UTF-8" standalone="no"?>
<svg
   aria-hidden="true"
   focusable="false"
   data-prefix="fab"
   data-icon="creative-commons-zero"
   role="img"
   viewBox="0 0 496 512"
   class="svg-inline--fa fa-creative-commons-zero fa-w-16 fa-5x"
   version="1.1"
   id="svg4"
   sodipodi:docname="x bar-alt.svg"
   inkscape:version="1.1 (c68e22c387, 2021-05-23)"
   xmlns:inkscape="http://www.inkscape.org/namespaces/inkscape"
   xmlns:sodipodi="http://sodipodi.sourceforge.net/DTD/sodipodi-0.dtd"
   xmlns="http://www.w3.org/2000/svg"
   xmlns:svg="http://www.w3.org/2000/svg">
  <defs
     id="defs8" />
  <sodipodi:namedview
     id="namedview6"
     pagecolor="#ffffff"
     bordercolor="#666666"
     borderopacity="1.0"
     inkscape:pageshadow="2"
     inkscape:pageopacity="0.0"
     inkscape:pagecheckerboard="0"
     showgrid="false"
     inkscape:zoom="0.63964845"
     inkscape:cx="250.1374"
     inkscape:cy="397.8748"
     inkscape:window-width="960"
     inkscape:window-height="1017"
     inkscape:window-x="0"
     inkscape:window-y="30"
     inkscape:window-maximized="0"
     inkscape:current-layer="text467"
     inkscape:snap-global="false" />
  <g
     aria-label="X̅"
     id="text467"
     style="font-size:192px;line-height:1.25;font-family:'Neutra Text';-inkscape-font-specification:'Neutra Text';letter-spacing:0px;word-spacing:0px">
    <path
       id="path1483"
       style="color:#000000;-inkscape-font-specification:'Neutra Text';fill:#000000;stroke-linecap:round;stroke-linejoin:round;-inkscape-stroke:none"
       d="M 100.25586 16.894531 A 22.947294 22.947294 0 0 0 77.310547 39.837891 L 77.310547 49.488281 A 22.947294 22.947294 0 0 0 100.25586 72.431641 L 314.3457 72.431641 A 22.947294 22.947294 0 0 0 337.29102 49.488281 L 337.29102 39.837891 A 22.947294 22.947294 0 0 0 314.3457 16.894531 L 100.25586 16.894531 z M 69.9375 107.13867 C 51.145342 107.13867 39.628774 127.34641 48.923828 143.51172 L 142.48047 301.12305 L 48.923828 458.73438 C 39.4267 474.89968 51.145342 495.10547 69.9375 495.10547 L 128.33594 495.10547 C 137.22684 495.10547 145.30934 490.25754 149.55273 482.37695 C 193.40112 401.55043 196.02805 391.44562 207.34375 365.7832 C 227.18686 406.00212 226.31182 407.60911 236.36328 427.90625 C 242.34514 414.38166 247.5209 403.80048 250.25195 399.84961 C 254.43275 393.80147 261.46097 391.69766 265.41406 391.58008 C 279.00211 391.17591 302.93708 391.50826 325.91602 391.75195 L 272.00391 301.12305 C 273.41838 298.90033 333.22993 199.07996 365.56055 143.51172 C 375.05766 127.34641 363.33814 107.13867 344.74805 107.13867 L 286.55273 107.13867 C 277.6618 107.13867 269.57933 111.98856 265.33594 119.86914 C 228.96398 186.75308 220.47714 205.54481 207.54492 236.46094 C 179.45769 177.65965 193.60231 201.50392 149.75391 119.86914 C 145.51052 111.98856 137.22684 107.13867 128.33594 107.13867 L 69.9375 107.13867 z M 438.14453 406.37891 C 429.40355 406.37891 422.09746 407.89897 416.22852 410.9375 C 408.52813 414.89175 402.68143 420.5734 398.68555 427.98242 C 394.68968 435.39144 392.69141 443.86075 392.69141 453.39258 C 392.69141 462.17518 394.48091 470.31437 398.06055 477.80664 C 401.64019 485.25728 406.98976 490.99961 414.10742 495.03711 C 421.22507 499.03298 429.56914 501.03125 439.14258 501.03125 C 446.67648 501.03125 454.10782 499.61556 461.43359 496.78516 C 468.80098 493.91312 474.42001 490.60549 478.29102 486.85938 L 478.29102 450.39648 L 438.45703 450.39648 L 438.45703 465.81836 L 459.62305 465.81836 L 459.62305 477.43164 C 456.83427 479.59607 453.48293 481.44821 449.57031 482.98828 C 445.6993 484.48673 441.82803 485.23633 437.95703 485.23633 C 430.13177 485.23633 423.80491 482.53022 418.97656 477.11914 C 414.14821 471.66643 411.73438 463.50831 411.73438 452.64453 C 411.73438 442.5716 414.10646 434.97519 418.85156 429.85547 C 423.63828 424.73576 430.06953 422.17578 438.14453 422.17578 C 443.47236 422.17578 447.90534 423.48708 451.44336 426.10938 C 455.023 428.69004 457.45772 432.2273 458.74805 436.72266 L 477.10352 433.28906 C 475.27207 424.88108 471.15224 418.30369 464.74219 413.55859 C 458.37377 408.77187 449.5078 406.37891 438.14453 406.37891 z M 266.5918 407.93945 L 230.94141 499.4707 L 250.54688 499.4707 L 258.10156 478.67969 L 294.68945 478.67969 L 302.67969 499.4707 L 322.78516 499.4707 L 286.13477 407.93945 L 266.5918 407.93945 z M 309.82617 407.93945 L 342.54297 499.4707 L 362.27344 499.4707 L 395.05078 407.93945 L 375.44727 407.93945 L 353.0332 475.68359 L 329.86914 407.93945 L 309.82617 407.93945 z M 276.14453 429.29297 L 288.75781 463.25781 L 263.7832 463.25781 L 276.14453 429.29297 z M 282.27344 494.67969 C 282.77908 494.76992 283.28191 494.85957 283.79492 494.91797 C 283.76438 494.83852 283.73368 494.75914 283.70312 494.67969 L 282.27344 494.67969 z " />
    <text
       xml:space="preserve"
       style="font-size:28px;line-height:1.25;font-family:Arial;-inkscape-font-specification:Arial;letter-spacing:0px;word-spacing:0px"
       x="25.39839"
       y="11.964706"
       id="text1034"><tspan
         sodipodi:role="line"
         id="tspan1032"></tspan></text>
  </g>
</svg>
